<svg id="Componente_8_1" data-name="Componente 8 – 1" xmlns="http://www.w3.org/2000/svg" width="1366" height="273" viewBox="0 0 1366 273">
  <rect id="Retângulo_61" data-name="Retângulo 61" width="1366" height="273" fill="#6460aa"/>
  <g id="Grupo_392" data-name="Grupo 392" transform="translate(-665.679 -170.854)">
    <path id="Caminho_14" data-name="Caminho 14" d="M1315.47,170.854l-424.5,224.755c-15.526,8.524-33.752,6.38-46.421-5.476L734.57,290.094a7.7,7.7,0,1,0-1.4,1.612L843.1,391.7a40.966,40.966,0,0,0,28.123,11.219,43.078,43.078,0,0,0,20.76-5.434l424.486-224.745Z" transform="translate(0)" fill="#fff"/>
    <path id="Caminho_15" data-name="Caminho 15" d="M762.043,231.778h2.126l27.436-32.969v54.768h11.062V181.261h-10.1l-29.354,35.416-29.458-35.416h-13l14.071,17.548Z" transform="translate(0.263 39.066)" fill="#fff"/>
  </g>
</svg>
