<svg id="Grupo_342" data-name="Grupo 342" xmlns="http://www.w3.org/2000/svg" width="114.156" height="43.346" viewBox="0 0 114.156 43.346">
  <g id="Grupo_42" data-name="Grupo 42">
    <g id="Grupo_31" data-name="Grupo 31">
      <ellipse id="Elipse_14" data-name="Elipse 14" cx="2.885" cy="2.885" rx="2.885" ry="2.885" transform="translate(21.88 24.695)" fill="#6d6e71"/>
      <ellipse id="Elipse_15" data-name="Elipse 15" cx="2.885" cy="2.885" rx="2.885" ry="2.885" transform="translate(52.788 24.695)" fill="#6d6e71"/>
      <ellipse id="Elipse_16" data-name="Elipse 16" cx="2.885" cy="2.885" rx="2.885" ry="2.885" transform="translate(75.702 24.695)" fill="#6d6e71"/>
      <ellipse id="Elipse_17" data-name="Elipse 17" cx="2.885" cy="2.885" rx="2.885" ry="2.885" transform="translate(108.387 24.695)" fill="#6d6e71"/>
      <path id="Caminho_88" data-name="Caminho 88" d="M545.311,387.411a11.212,11.212,0,0,0-2.347-2.82,10.637,10.637,0,0,0-5.089-2.529,9.293,9.293,0,0,0-3.783.045,11.509,11.509,0,0,0-5.05,2.59,1.957,1.957,0,0,1-.347.261.416.416,0,0,1-.641-.3c-.061-.509-.074-1.024-.155-1.528-.135-.866-.518-1.159-1.352-1-2.008.389-4.011.8-6.013,1.224a.7.7,0,0,0-.54.828c.022.409.2.695.646.724.509.036,1.028.016,1.531.092a1.854,1.854,0,0,1,1.764,1.9,19.555,19.555,0,0,1,.048,1.974c0,5.489-.023,10.98-.014,16.471.009,4.611.052,9.222.079,13.832l4.335.189c.941-.043,1.883-.076,2.824-.137a.557.557,0,0,0,.529-.576.6.6,0,0,0-.4-.682,3.273,3.273,0,0,0-.979-.131,2.464,2.464,0,0,1-1.483-.493,1.933,1.933,0,0,1-.6-1.107c-.273-1.15-.351-6-.185-12.567l1.476.941c.65.349,1.2.626,1.607.826a9.671,9.671,0,0,0,1.233.554,11.325,11.325,0,0,0,1.674.353,12.072,12.072,0,0,0,6.659-1.06,9.439,9.439,0,0,0,2.741-1.89,9.59,9.59,0,0,0,1.715-2.475,15.893,15.893,0,0,0,1.659-7.791c-.005-.133-.011-.229-.013-.25A12.142,12.142,0,0,0,545.311,387.411Zm-17.333,16.377a.543.543,0,0,1,.13-.428.543.543,0,0,0-.13.428m14.39-8.743c-.155,1.888-.455,5.541-3.234,7.964A6.729,6.729,0,0,1,535,404.844a8.024,8.024,0,0,1-2.914-.561c-.52-.214-1.116-.536-1.116-.536-.236-.135-.515-.3-.826-.482q-.394-.337-.788-.671l-1.22-1.251c-.061-6.617-.094-11.43-.117-12.43a3.177,3.177,0,0,1,.167-1.137,3.434,3.434,0,0,1,.752-1.2c2.388-2.586,5.365-3.371,8.433-2.178a7.206,7.206,0,0,1,2.446,1.647,8.482,8.482,0,0,1,2.03,3.828,13.931,13.931,0,0,1,.518,5.176" transform="translate(-493.95 -376.019)" fill="#6d6e71"/>
      <path id="Caminho_89" data-name="Caminho 89" d="M577.379,417.945c-.419-.11-.871-.088-1.3-.169-1.612-.3-2.082-.84-2.167-2.514-.068-1.388-.138-2.777-.14-4.164q-.016-13.392,0-26.781c0-.513,0-1.026-.036-1.537a.551.551,0,0,0-.3-.538.728.728,0,0,0-.81.126c-.383.335-.7.749-1.065,1.1-1.684,1.605-1.558,1.512-3.259.425a10.836,10.836,0,0,0-7.735-1.749,11.28,11.28,0,0,0-8.226,5.959,13.444,13.444,0,0,0-1.215,9.589,10.491,10.491,0,0,0,9.11,8.559,13.738,13.738,0,0,0,7.829-1.555c.5-.245.9-.77,1.7-.612.011.916.027,1.85.029,2.784,0,3.731-.005,7.463.009,11.2,0,.993.149,1.137,1.141,1.146,1.9.016,3.8,0,5.707,0a2.6,2.6,0,0,0,.648-.074.53.53,0,0,0,.383-.671c-.04-.193-.162-.479-.3-.515m-7.569-23.322h-.032c0,2.122-.032,4.244.014,6.365a1.9,1.9,0,0,1-.986,1.791,10.531,10.531,0,0,1-6.826,1.938,6.041,6.041,0,0,1-5.1-3.308,14.218,14.218,0,0,1-1.429-7.238,17.165,17.165,0,0,1,.761-5.192,7.163,7.163,0,0,1,9-4.886,11.147,11.147,0,0,1,3.7,1.868,2.082,2.082,0,0,1,.912,1.857c-.045,2.268-.016,4.537-.016,6.8" transform="translate(-469.341 -375.927)" fill="#6d6e71"/>
      <path id="Caminho_90" data-name="Caminho 90" d="M552.545,405.213c-.167-.385-.461-.578-.8-.27a9.576,9.576,0,0,0-.921,1.132,7.023,7.023,0,0,1-.939.543,3.038,3.038,0,0,1-4.433-2.372,10.451,10.451,0,0,1-.193-1.951c-.056-4.586-.077-9.171-.138-13.757-.022-1.577.05-1.708,1.706-1.659,1.526.043,3.054-.011,4.582-.041a.5.5,0,0,0,.529-.552.649.649,0,0,0-.122-.383.782.782,0,0,0-.38-.241c-.677-.2-5.343-.086-5.883-.259a.579.579,0,0,1-.327-.234.447.447,0,0,1-.052-.211c0-.225.074-5.19-.085-5.788a1.043,1.043,0,0,0-.252-.444c-.22-.272-.277-.1-1.22,2.269-.909,2.28-2.367,4.026-4.944,4.514a.8.8,0,0,0-.394.162.784.784,0,0,0-.248.785.487.487,0,0,0,.457.394c.655.047,1.314.043,1.971.061a.669.669,0,0,1,.716.657,8.349,8.349,0,0,1,.016.876c-.007,3.876-.011,7.755-.031,11.63a23.738,23.738,0,0,0,.4,4.8,3.947,3.947,0,0,0,.493,1.432,5.851,5.851,0,0,0,6.486,2.489,6.468,6.468,0,0,0,3.848-2.7l.2-.41-.04-.471" transform="translate(-479.541 -378.628)" fill="#6d6e71"/>
      <path id="Caminho_91" data-name="Caminho 91" d="M520.072,382.5a10.692,10.692,0,0,0-5.192-.383,10.5,10.5,0,0,0-8.467,7.4,13.433,13.433,0,0,0,1.4,12.367l1.688,1.852,2.6,1.661,1.344.551,2.111.47c.511-.007,1.026.016,1.535-.027a10.513,10.513,0,0,0,7.267-3.108,5.2,5.2,0,0,0,1.413-2.43c.079-.367-.146-.513-.481-.527a.936.936,0,0,0-.943.4,14.728,14.728,0,0,1-.986,1.447,6.961,6.961,0,0,1-11.761-1.481,12.834,12.834,0,0,1-.815-2.489,23.743,23.743,0,0,1-.482-5.885c.043-1.582.083-1.609,1.58-1.632.365-.007.731,0,1.1,0q5.372,0,10.746,0c.585,0,1.17-.005,1.751-.054a.522.522,0,0,0,.489-.608,9.015,9.015,0,0,0-5.9-7.519m1.085,6.369c-.1.457-.468.529-.833.533-1.463.014-2.926.005-4.389.005v.013q-2.3,0-4.609,0c-.425,0-.706-.191-.677-.643a5.656,5.656,0,0,1,7.483-5.145,4.682,4.682,0,0,1,3.025,5.239" transform="translate(-505.522 -375.965)" fill="#6d6e71"/>
    </g>
  </g>
</svg>
