<svg id="Componente_8_1" data-name="Componente 8 – 1" xmlns="http://www.w3.org/2000/svg" width="165.298" height="37.946" viewBox="0 0 165.298 37.946">
  <g id="Grupo_30" data-name="Grupo 30">
    <g id="Grupo_25" data-name="Grupo 25">
      <g id="Grupo_23" data-name="Grupo 23">
        <rect id="Retângulo_21" data-name="Retângulo 21" width="6.041" height="17.127" transform="translate(0.402 9.99)" fill="#6d6e71"/>
        <rect id="Retângulo_22" data-name="Retângulo 22" width="4.964" height="9.497" transform="translate(18.678 15.715) rotate(90)" fill="#6d6e71"/>
        <path id="Caminho_63" data-name="Caminho 63" d="M531.21,333.206H514.017v5.53h5.37v19.622h6.446V338.737h5.378Z" transform="translate(-497.641 -331.226)" fill="#6d6e71"/>
        <g id="Grupo_22" data-name="Grupo 22" transform="translate(36.514 1.98)">
          <path id="Caminho_64" data-name="Caminho 64" d="M531.652,333.206h-6.445v25.152h6.445v-10.4h11.32V343h-11.32Z" transform="translate(-525.207 -333.206)" fill="#6d6e71"/>
          <rect id="Retângulo_23" data-name="Retângulo 23" width="6.445" height="25.152" transform="translate(16.049)" fill="#6d6e71"/>
        </g>
        <path id="Caminho_65" data-name="Caminho 65" d="M568,338.737v-5.53H553.79v25.152H568v-5.53h-7.765v-4.4h7.145v-5.46h-7.145v-4.23Z" transform="translate(-465.835 -331.226)" fill="#6d6e71"/>
        <path id="Caminho_66" data-name="Caminho 66" d="M569.948,358.373l1.5-4.451h9.315l1.537,4.451h6.925L579.92,333.2h-7.58l-9.358,25.172Zm6.182-17.662,3.038,8.372h-6.074Z" transform="translate(-458.485 -331.23)" fill="#6d6e71"/>
        <ellipse id="Elipse_13" data-name="Elipse 13" cx="3.422" cy="3.422" rx="3.422" ry="3.422" fill="#6d6e71"/>
        <path id="Caminho_67" data-name="Caminho 67" d="M588.573,333.209h-9.428v25.152s5.669-.07,9.428-.07h0a12.542,12.542,0,0,0,12.542-12.542h0A12.54,12.54,0,0,0,588.573,333.209Zm5.71,12.945a6.694,6.694,0,0,1-6.693,6.695h-1.96V338.732h1.9a6.754,6.754,0,0,1,6.754,6.756Z" transform="translate(-445.559 -331.224)" fill="#6d6e71"/>
        <path id="Caminho_68" data-name="Caminho 68" d="M553.577,348.065a6.872,6.872,0,0,0,5.536-6.74V340.1a6.87,6.87,0,0,0-6.869-6.869h-5.2v-.025H540.6v25.152h6.446v-9.74l6.4,9.747h8.1Zm-1.191-6.549c0,1.627-1.38,3.054-4.01,2.946H547.2v-6.213h1.137c2.6-.149,4.046,1.33,4.046,2.973Z" transform="translate(-476.383 -331.223)" fill="#6d6e71"/>
      </g>
      <g id="Grupo_24" data-name="Grupo 24" transform="translate(159.269 1.789)">
        <path id="Caminho_69" data-name="Caminho 69" d="M596.147,335.535a.677.677,0,0,0,.7-.678v-.144c0-.448-.266-.8-.99-.8h-.6v0h-.743v2.971h.4v-1.33h.657c.259,0,.741.815,1.1,1.33h.5C597.052,336.768,596.453,335.834,596.147,335.535Zm.29-.777c-.034.549-.628.463-1.37.463h-.135v-.993h.131c.772-.009,1.4-.005,1.373.5Z" transform="translate(-592.535 -332.452)" fill="#6d6e71"/>
        <path id="Caminho_70" data-name="Caminho 70" d="M596.43,333.1a3.014,3.014,0,1,0,3.014,3.014A3.015,3.015,0,0,0,596.43,333.1Zm0,5.651a2.636,2.636,0,1,1,2.635-2.637A2.637,2.637,0,0,1,596.43,338.751Z" transform="translate(-593.416 -333.1)" fill="#6d6e71"/>
      </g>
    </g>
    <g id="Grupo_29" data-name="Grupo 29" transform="translate(64.219 28.658)">
      <g id="Grupo_28" data-name="Grupo 28">
        <path id="Caminho_71" data-name="Caminho 71" d="M585.365,356.143c-.014-.068-.058-.112-.007-.211.356-.684.682-1.382,1.035-2.066a.6.6,0,0,0,0-.6c-.531-1.094-1.047-2.2-1.569-3.3-.063-.131-.119-.266-.184-.41.41-.14.626-.014.792.371.385.893.815,1.767,1.231,2.647.043.092.054.259.171.239.092-.014.191-.135.243-.232.137-.25.248-.511.369-.768.3-.635.625-1.262.891-1.911a.528.528,0,0,1,.742-.358c-.977,2.251-2.145,4.4-3.225,6.6Z" transform="translate(-505.383 -346.854)" fill="#6d6e71"/>
        <path id="Caminho_72" data-name="Caminho 72" d="M574.239,351.525a1.578,1.578,0,0,1,1.3,1.623,1.7,1.7,0,0,1-1.3,1.706,12.838,12.838,0,0,1-3.076.153c-.218.005-.164-.174-.165-.3,0-.907,0-1.816,0-2.723,0-1.11.007-2.223,0-3.333,0-.259.061-.358.338-.345a23.123,23.123,0,0,1,2.4.074,1.656,1.656,0,0,1,1.544,1.8C575.232,350.735,575,351.039,574.239,351.525Zm-2.665,1.6c0,.365.005.731,0,1.1,0,.174.027.281.239.273a15.287,15.287,0,0,0,1.945-.07,1.274,1.274,0,0,0,.056-2.539,12.863,12.863,0,0,0-2.023-.07c-.2-.009-.218.1-.218.256C571.577,352.418,571.573,352.771,571.573,353.122Zm0-3.025c0,.324,0,.65,0,.974,0,.148.007.266.207.263.6-.014,1.195.031,1.784-.034a1.191,1.191,0,0,0,1.029-1.71,1.315,1.315,0,0,0-1.2-.707c-.513-.034-1.028-.011-1.541-.032-.25-.013-.293.1-.286.313C571.582,349.474,571.573,349.785,571.573,350.1Z" transform="translate(-516.298 -347.808)" fill="#6d6e71"/>
        <g id="Grupo_27" data-name="Grupo 27" transform="translate(0 0.502)">
          <g id="Grupo_26" data-name="Grupo 26">
            <path id="Caminho_73" data-name="Caminho 73" d="M540.6,351.638v-3.011c0-.166-.023-.326.236-.319a19.94,19.94,0,0,1,2.518.079,1.881,1.881,0,0,1,1.659,2.5,1.863,1.863,0,0,1-1.533,1.238,9.173,9.173,0,0,1-1.987.085c-.245,0-.331.058-.324.315.016.718,0,1.438.011,2.158,0,.237-.049.335-.311.335s-.272-.128-.27-.328C540.606,353.674,540.6,352.657,540.6,351.638Zm.574-1.366v1.177c0,.137-.022.274.194.27a10.714,10.714,0,0,0,2.023-.1,1.33,1.33,0,0,0,1.136-1.332,1.306,1.306,0,0,0-1.114-1.343,9.988,9.988,0,0,0-2.061-.1c-.183-.005-.178.119-.178.245Z" transform="translate(-540.601 -348.309)" fill="#6d6e71"/>
          </g>
        </g>
        <path id="Caminho_74" data-name="Caminho 74" d="M577.4,350.362c-.111-.365-.032-.587.329-.7a3.623,3.623,0,0,1,.988-.216,1.561,1.561,0,0,1,1.85,1.764c0,.637,0,1.274.011,1.911.007.349.12.626.554.561.137-.02.207.018.2.166s.02.284-.175.31a.872.872,0,0,1-.92-.281c-.144-.214-.229-.164-.4-.054a2.242,2.242,0,0,1-1.746.338,1.263,1.263,0,0,1-.2-2.448,2.988,2.988,0,0,1,1.762-.072c.3.068.363-.031.365-.315.005-1.1-.662-1.58-1.832-1.294A3.38,3.38,0,0,0,577.4,350.362Zm2.615,2.295c-.065-.169.16-.454-.171-.536a2.934,2.934,0,0,0-1.676-.009.747.747,0,0,0-.569.824.784.784,0,0,0,.695.729,1.967,1.967,0,0,0,1.186-.146C579.861,353.353,580.151,353.146,580.018,352.656Z" transform="translate(-511.468 -346.902)" fill="#6d6e71"/>
        <path id="Caminho_75" data-name="Caminho 75" d="M547.487,353.235a.512.512,0,0,1-.367.758,3.182,3.182,0,0,1-2.226.025,2.359,2.359,0,0,1-1.289-3.074,2.248,2.248,0,0,1,2.836-1.386,2.069,2.069,0,0,1,1.355,2.214c-.029.236-.166.2-.31.2h-3.052c-.461,0-.484.036-.333.491a2,2,0,0,0,2.539,1.154A4.96,4.96,0,0,0,547.487,353.235Zm-1.882-1.706c.4,0,.81,0,1.215,0,.439,0,.475-.045.382-.454a1.455,1.455,0,0,0-1.528-1.125,1.749,1.749,0,0,0-1.627,1.388c-.013.191.088.193.219.193Q544.936,351.528,545.6,351.528Z" transform="translate(-538.325 -346.901)" fill="#6d6e71"/>
        <path id="Caminho_76" data-name="Caminho 76" d="M553.881,353.24a.505.505,0,0,1-.369.75,3.347,3.347,0,0,1-1.719.155,2.333,2.333,0,0,1-1.791-2.9,2.2,2.2,0,0,1,2.689-1.731,2.033,2.033,0,0,1,1.5,2.259c-.014.232-.171.2-.319.2-1,0-2.007.014-3.011-.007-.351-.007-.412.085-.313.416a1.959,1.959,0,0,0,2.71,1.163C553.463,353.461,553.652,353.352,553.881,353.24Zm-1.807-1.717c.432,0,.866-.009,1.3,0,.232.007.306-.054.261-.3a1.459,1.459,0,0,0-1.481-1.285,1.723,1.723,0,0,0-1.623,1.395c-.025.205.085.187.209.187Z" transform="translate(-533.134 -346.896)" fill="#6d6e71"/>
        <path id="Caminho_77" data-name="Caminho 77" d="M578.045,353.216c.149.455-.038.653-.4.777a3.275,3.275,0,0,1-1.679.155,2.341,2.341,0,0,1-1.832-2.849,2.219,2.219,0,0,1,2.692-1.793,2.038,2.038,0,0,1,1.517,2.289c-.02.248-.205.169-.335.169-.992.007-1.982,0-2.971,0-.412,0-.443.045-.32.446a1.922,1.922,0,0,0,2.467,1.2A3.947,3.947,0,0,0,578.045,353.216Zm-1.821-1.693c.378,0,.758,0,1.136,0,.455,0,.495-.049.385-.481a1.45,1.45,0,0,0-1.508-1.1,1.737,1.737,0,0,0-1.555,1.375c-.023.22.1.205.245.2Z" transform="translate(-513.831 -346.895)" fill="#6d6e71"/>
        <path id="Caminho_78" data-name="Caminho 78" d="M566.272,351.82a2.4,2.4,0,1,1-2.4-2.376A2.323,2.323,0,0,1,566.272,351.82Zm-.56.013a1.838,1.838,0,1,0-1.83,1.855A1.773,1.773,0,0,0,565.712,351.832Z" transform="translate(-523.909 -346.899)" fill="#6d6e71"/>
        <path id="Caminho_79" data-name="Caminho 79" d="M583.287,353.453a2.9,2.9,0,0,1-1.55.695,1.477,1.477,0,0,1-1.789-1.427c-.045-.988-.014-1.98-.029-2.969,0-.211.092-.245.27-.247.2,0,.292.052.29.273-.011.774-.007,1.548,0,2.32.007,1.415.6,1.83,1.938,1.359a1.13,1.13,0,0,0,.92-1.271c0-.786,0-1.575,0-2.361,0-.2.014-.328.275-.326s.286.11.284.322c-.005,1.289,0,2.577,0,3.866,0,.182.058.371-.259.383-.335.011-.3-.182-.3-.385A1.9,1.9,0,0,0,583.287,353.453Z" transform="translate(-509.158 -346.855)" fill="#6d6e71"/>
        <path id="Caminho_80" data-name="Caminho 80" d="M568.149,353.444a3.059,3.059,0,0,1-1.433.7,1.483,1.483,0,0,1-1.836-1.362c-.121-1.011-.022-2.032-.05-3.047-.005-.23.138-.218.293-.225.175-.009.274.025.272.239-.011.813-.009,1.625,0,2.439.005.508.013,1.04.538,1.316a1.569,1.569,0,0,0,1.584-.144,1.11,1.11,0,0,0,.664-1.166c-.067-.781-.009-1.571-.022-2.358,0-.238.05-.333.311-.333.277,0,.257.155.257.338,0,1.289,0,2.575,0,3.864,0,.185.048.372-.266.367-.277,0-.322-.119-.3-.344A2.164,2.164,0,0,0,568.149,353.444Z" transform="translate(-521.234 -346.855)" fill="#6d6e71"/>
        <path id="Caminho_81" data-name="Caminho 81" d="M558.552,348.357a.714.714,0,0,1,.9.335c.619.936,1.283,1.843,1.94,2.781.653-.93,1.3-1.83,1.918-2.754a.7.7,0,0,1,.866-.374c.005.151-.112.239-.186.346-.7,1-1.4,2-2.109,2.991a1.049,1.049,0,0,0-.207.673c.011.786-.005,1.575.009,2.361,0,.229-.067.3-.3.306-.252.005-.286-.1-.283-.315.011-.772-.005-1.546.009-2.318a1.1,1.1,0,0,0-.23-.709c-.7-.979-1.393-1.969-2.088-2.955C558.719,348.615,558.649,348.5,558.552,348.357Z" transform="translate(-526.246 -347.81)" fill="#6d6e71"/>
        <path id="Caminho_82" data-name="Caminho 82" d="M548.877,353.206c0-.527-.022-1.058.009-1.584.02-.351-.07-.5-.443-.45-.124.018-.308.072-.328-.176s.052-.367.311-.32c.385.068.486-.106.457-.468a4.218,4.218,0,0,1,.045-1.053,1.419,1.419,0,0,1,1.868-1.038c.187.072.13.211.137.335.011.153-.083.173-.211.158a3.048,3.048,0,0,0-.4-.02.785.785,0,0,0-.862.768c-.032.364-.009.732-.023,1.1-.007.191.094.223.252.22.284-.005.569.007.853,0,.191-.007.263.061.263.257s-.085.259-.268.25c-.218-.009-.437.018-.651-.005-.34-.038-.466.054-.455.432.029,1.1.005,2.2.014,3.293,0,.218-.009.351-.3.344-.261-.007-.273-.13-.27-.329C548.882,354.345,548.877,353.775,548.877,353.206Z" transform="translate(-534.594 -348.03)" fill="#6d6e71"/>
        <path id="Caminho_83" data-name="Caminho 83" d="M556.293,352.168v-.977c0-.581,0-.578-.574-.6-.122,0-.3.065-.329-.139s-.022-.358.272-.362c.632-.011.632-.027.632-.659,0-.135.005-.27,0-.407-.013-.277.211-.234.367-.263.234-.045.175.137.185.261a.3.3,0,0,1,0,.04c.036.331-.151.761.09.972s.651.038.986.065c.128.011.279-.065.374.076a.271.271,0,0,1-.232.416c-.311.009-.624.011-.936,0-.207-.007-.29.067-.284.281.015.826-.007,1.656.034,2.48.038.752.4,1,1.143.846.1-.02.241-.185.286.036.032.158.072.342-.164.439a1.278,1.278,0,0,1-1.812-1.085c-.038-.471-.007-.948-.007-1.422Z" transform="translate(-528.785 -347.447)" fill="#6d6e71"/>
        <path id="Caminho_84" data-name="Caminho 84" d="M556.582,350.265c-1.47-.454-2.367-.292-2.888.518a1.943,1.943,0,0,0,.178,2.34,2.248,2.248,0,0,0,2.746.209c.13.5.094.585-.369.731a2.47,2.47,0,0,1-3.385-1.854,2.22,2.22,0,0,1,.934-2.282,2.669,2.669,0,0,1,2.635-.252C556.647,349.762,556.642,349.791,556.582,350.265Z" transform="translate(-530.818 -346.902)" fill="#6d6e71"/>
        <path id="Caminho_85" data-name="Caminho 85" d="M583.59,352.24c0-.508-.013-.927,0-1.346.009-.229-.061-.326-.3-.3-.135.014-.272-.005-.407,0-.2.011-.2-.117-.205-.263s.02-.22.191-.239c.236-.029.56.153.689-.124a2.043,2.043,0,0,0,.025-.724c0-.131-.059-.3.041-.389a.49.49,0,0,1,.425-.092c.155.032.081.176.092.272.034.346-.157.819.088,1,.227.171.677.047,1.028.058.164.005.367-.063.356.238-.005.191-.059.268-.255.261-.3-.011-.6.011-.894-.007-.241-.014-.333.056-.326.313.016.786,0,1.573.013,2.358.018.814.4,1.1,1.186.927.1-.02.247-.169.265.068.013.148.076.333-.149.407a1.3,1.3,0,0,1-1.811-.891A12.459,12.459,0,0,1,583.59,352.24Z" transform="translate(-506.945 -347.449)" fill="#6d6e71"/>
        <path id="Caminho_86" data-name="Caminho 86" d="M568.508,350.2a2.09,2.09,0,0,1,1.4-.716c.194-.005.335,0,.333.268,0,.241-.081.29-.306.279a1.455,1.455,0,0,0-1.069.41,1.051,1.051,0,0,0-.4.88c.029.8.009,1.6.009,2.4,0,.189.043.371-.268.371-.29,0-.288-.144-.286-.353q.005-1.93,0-3.859c0-.207-.007-.358.284-.358.31,0,.272.178.272.371C568.477,349.963,568.492,350.042,568.508,350.2Z" transform="translate(-518.754 -346.87)" fill="#6d6e71"/>
        <path id="Caminho_87" data-name="Caminho 87" d="M547.147,350.252a1.976,1.976,0,0,1,1.38-.767c.167-.007.355-.058.364.234.007.257-.076.32-.324.31a1.519,1.519,0,0,0-1.177.547.81.81,0,0,0-.248.614c.014.855,0,1.708.011,2.561,0,.243-.056.331-.313.333-.279,0-.255-.153-.255-.337q0-1.933,0-3.864c0-.189-.041-.371.268-.367.279,0,.318.126.3.347C547.138,349.957,547.147,350.052,547.147,350.252Z" transform="translate(-535.818 -346.872)" fill="#6d6e71"/>
      </g>
    </g>
  </g>
</svg>
