<svg id="Grupo_343" data-name="Grupo 343" xmlns="http://www.w3.org/2000/svg" width="127.457" height="30.829" viewBox="0 0 127.457 30.829">
  <g id="Grupo_43" data-name="Grupo 43">
    <g id="Grupo_36" data-name="Grupo 36">
      <g id="Grupo_35" data-name="Grupo 35">
        <g id="Grupo_32" data-name="Grupo 32" transform="translate(87.303 19.899)">
          <path id="Caminho_92" data-name="Caminho 92" d="M858.383,401.662a2.134,2.134,0,0,1-2.329-2.145v-4.964h1.292v4.974a1.084,1.084,0,1,0,2.165,0v-4.974h1.2v4.964A2.135,2.135,0,0,1,858.383,401.662Z" transform="translate(-856.054 -393.567)" fill="#6d6e71"/>
          <path id="Caminho_93" data-name="Caminho 93" d="M861.873,395.419v6.132H860.58v-6.132h-1.362v-.866h4.017v.866Z" transform="translate(-853.524 -393.567)" fill="#6d6e71"/>
          <path id="Caminho_94" data-name="Caminho 94" d="M868.043,401.55h-1.15l-1.037-4.281a6.421,6.421,0,0,1-.133-.772h-.02a6.8,6.8,0,0,1-.131.772l-1.038,4.281h-1.139l-1.605-7h1.29l.875,4.577a7.358,7.358,0,0,1,.112.835h.021c.031-.275.1-.651.142-.835l1.067-4.577h.956l1.028,4.577a8.251,8.251,0,0,1,.131.835h.021c.02-.225.081-.632.121-.835l.916-4.577h1.179Z" transform="translate(-851.468 -393.567)" fill="#6d6e71"/>
          <path id="Caminho_95" data-name="Caminho 95" d="M870.4,395.419v6.132h-1.29v-6.132H867.75v-.866h4.015v.866Z" transform="translate(-846.701 -393.567)" fill="#6d6e71"/>
          <path id="Caminho_96" data-name="Caminho 96" d="M871.332,398.639a1.481,1.481,0,0,0,1.535,1.524,3.09,3.09,0,0,0,1.353-.315l.3.794a4.162,4.162,0,0,1-1.821.4c-1.657,0-2.572-1.148-2.572-2.867s.875-2.838,2.359-2.838c1.423,0,2.226.936,2.226,2.644v.164Zm1.109-2.563c-.783,0-1.181.741-1.181,1.819v.112l2.259-.354C873.508,396.656,873.182,396.076,872.441,396.076Z" transform="translate(-844.803 -392.943)" fill="#6d6e71"/>
          <path id="Caminho_97" data-name="Caminho 97" d="M875.407,401.038c-1.334,0-2.228-1.128-2.228-2.858s.905-2.847,2.228-2.847a2.151,2.151,0,0,1,1.312.376l-.275.7a1.371,1.371,0,0,0-.783-.234c-.752,0-1.209.8-1.209,1.983s.457,1.983,1.209,1.983a1.311,1.311,0,0,0,.763-.234l.3.752A2.139,2.139,0,0,1,875.407,401.038Z" transform="translate(-842.36 -392.943)" fill="#6d6e71"/>
          <path id="Caminho_98" data-name="Caminho 98" d="M878.774,401.988v-3.814a.85.85,0,0,0-.966-.956,1.871,1.871,0,0,0-.884.223v4.546h-1.242v-7.983h1.242v2.735a2.5,2.5,0,0,1,1.22-.293,1.639,1.639,0,0,1,1.87,1.7v3.844Z" transform="translate(-840.358 -394.005)" fill="#6d6e71"/>
        </g>
        <g id="Grupo_33" data-name="Grupo 33">
          <path id="Caminho_99" data-name="Caminho 99" d="M823.489,409.07,810.771,387.2a24.633,24.633,0,0,1-1.443-2.809h-.076c.038.682.113,1.708.113,3.265V409.07h-1.821V382.948h2.771L822.5,404.021a26.932,26.932,0,0,1,1.4,2.771h.078c-.078-1.064-.115-2.088-.115-3.151V382.948h1.823V409.07Z" transform="translate(-807.544 -382.948)" fill="#6d6e71"/>
          <path id="Caminho_100" data-name="Caminho 100" d="M827.588,407.1c-4.442,0-7.175-2.127-7.175-6.076,0-4.859,4.668-6.871,11.428-7.555v-1.406c0-3.227-1.632-4.708-4.784-4.708a10.422,10.422,0,0,0-4.937,1.33l-.569-1.33a11.828,11.828,0,0,1,5.543-1.479c4.175,0,6.682,2.088,6.682,6.225V405.7A13.792,13.792,0,0,1,827.588,407.1Zm4.253-12.378c-5.847.684-9.416,2.2-9.416,6.3,0,3.038,1.821,4.784,5.43,4.784a9.384,9.384,0,0,0,3.986-.835Z" transform="translate(-797.253 -380.602)" fill="#6d6e71"/>
          <path id="Caminho_101" data-name="Caminho 101" d="M842.592,406.725V392.448c0-3.531-1.406-5.2-5.239-5.2a10.312,10.312,0,0,0-4.215.8v18.681h-2.05v-19.44a14.9,14.9,0,0,1,6.265-1.4c5.048,0,7.289,2.277,7.289,6.567v14.277Z" transform="translate(-788.716 -380.602)" fill="#6d6e71"/>
          <path id="Caminho_102" data-name="Caminho 102" d="M848.921,407.1c-5.241,0-7.517-4.519-7.517-10.631,0-6.076,2.277-10.593,7.517-10.593s7.517,4.517,7.517,10.593C856.438,402.586,854.16,407.1,848.921,407.1Zm0-19.858c-4.1,0-5.467,4.29-5.467,9.15s1.366,9.227,5.467,9.227,5.468-4.366,5.468-9.227C854.389,391.575,853.021,387.247,848.921,387.247Z" transform="translate(-780.467 -380.602)" fill="#6d6e71"/>
        </g>
        <path id="Caminho_103" data-name="Caminho 103" d="M853.6,412.778h0a.791.791,0,0,0,.772-.808V385a.789.789,0,0,0-.772-.806h0a.789.789,0,0,0-.772.806V411.97A.791.791,0,0,0,853.6,412.778Z" transform="translate(-771.33 -381.949)" fill="#6d6e71"/>
        <g id="Grupo_34" data-name="Grupo 34" transform="translate(86.624 4.141)">
          <path id="Caminho_104" data-name="Caminho 104" d="M859.5,395.89c-2.683,0-3.821-2.457-3.821-4.985s1.137-4.985,3.821-4.985a3.692,3.692,0,0,1,2.105.561l-.491,1.391a2.191,2.191,0,0,0-1.166-.31c-1.431,0-1.924,1.672-1.924,3.315,0,1.6.549,3.272,1.911,3.272a2.142,2.142,0,0,0,1.137-.31l.533,1.474A3.694,3.694,0,0,1,859.5,395.89Z" transform="translate(-855.677 -384.712)" fill="#6d6e71"/>
          <path id="Caminho_105" data-name="Caminho 105" d="M862.8,396.221c-2.161,0-3.328-.813-3.328-2.4,0-1.868,1.909-2.471,4.24-2.7v-.338c0-.729-.462-1.053-1.3-1.053a4.907,4.907,0,0,0-2.023.479l-.477-1.292a7.347,7.347,0,0,1,2.822-.576c1.854,0,3.032.786,3.032,2.766v4.55A6.716,6.716,0,0,1,862.8,396.221Zm1.461-8.4-1.418-1.094-1.418,1.094-.619-.576,1.418-1.474a.851.851,0,0,1,1.236,0l1.418,1.474Zm-.549,4.325c-1.459.155-2.19.6-2.19,1.587,0,.842.491,1.263,1.391,1.263a1.844,1.844,0,0,0,.8-.14Z" transform="translate(-852.638 -385.043)" fill="#6d6e71"/>
          <path id="Caminho_106" data-name="Caminho 106" d="M868.176,394.8v-5.125c0-.828-.351-1.235-1.222-1.235a2.434,2.434,0,0,0-.871.153V394.8h-2.19v-7.161a7.836,7.836,0,0,1,3.061-.547c2.386,0,3.412.968,3.412,2.6V394.8Z" transform="translate(-849.107 -383.776)" fill="#6d6e71"/>
          <path id="Caminho_107" data-name="Caminho 107" d="M871.7,394.891c-2.176,0-3.286-.8-3.286-2.667v-5.055h2.19v5.152a1,1,0,0,0,1.125,1.11,2.321,2.321,0,0,0,.869-.169v-6.094h2.192v7.146A7.982,7.982,0,0,1,871.7,394.891Z" transform="translate(-845.495 -383.714)" fill="#6d6e71"/>
          <path id="Caminho_108" data-name="Caminho 108" d="M872.9,396.272V385.249h2.192v11.023Z" transform="translate(-841.907 -385.249)" fill="#6d6e71"/>
          <path id="Caminho_109" data-name="Caminho 109" d="M878.2,394.96c-2.161,0-3.328-.813-3.328-2.4,0-1.868,1.911-2.471,4.242-2.7v-.338c0-.729-.464-1.053-1.307-1.053a4.913,4.913,0,0,0-2.023.479l-.477-1.292a7.356,7.356,0,0,1,2.824-.576c1.852,0,3.032.786,3.032,2.766v4.55A6.72,6.72,0,0,1,878.2,394.96Zm.914-4.073c-1.461.155-2.192.6-2.192,1.587,0,.842.493,1.263,1.391,1.263a1.857,1.857,0,0,0,.8-.14Z" transform="translate(-840.329 -383.782)" fill="#6d6e71"/>
        </g>
      </g>
    </g>
  </g>
</svg>
