<svg id="_007-equalizer" data-name="007-equalizer" xmlns="http://www.w3.org/2000/svg" width="15.684" height="15.714" viewBox="0 0 15.684 15.714">
  <g id="Grupo_166" data-name="Grupo 166" transform="translate(5.402 12.465)">
    <g id="Grupo_165" data-name="Grupo 165">
      <path id="Caminho_73" data-name="Caminho 73" d="M177.114,406.122a.614.614,0,0,0-.614.614v2.022a.614.614,0,0,0,1.228,0v-2.022A.614.614,0,0,0,177.114,406.122Z" transform="translate(-176.5 -406.122)" fill="#533a98"/>
    </g>
  </g>
  <g id="Grupo_168" data-name="Grupo 168" transform="translate(4.174)">
    <g id="Grupo_167" data-name="Grupo 167">
      <path id="Caminho_74" data-name="Caminho 74" d="M139.569,10.006h-.614V.614a.614.614,0,1,0-1.228,0v9.392h-.614a.614.614,0,1,0,0,1.228h2.455a.614.614,0,1,0,0-1.228Z" transform="translate(-136.5)" fill="#533a98"/>
    </g>
  </g>
  <g id="Grupo_170" data-name="Grupo 170" transform="translate(1.228 4.423)">
    <g id="Grupo_169" data-name="Grupo 169">
      <path id="Caminho_75" data-name="Caminho 75" d="M41.114,144.122a.614.614,0,0,0-.614.614V154.8a.614.614,0,1,0,1.228,0V144.736A.614.614,0,0,0,41.114,144.122Z" transform="translate(-40.5 -144.122)" fill="#533a98"/>
    </g>
  </g>
  <g id="Grupo_172" data-name="Grupo 172">
    <g id="Grupo_171" data-name="Grupo 171">
      <path id="Caminho_76" data-name="Caminho 76" d="M3.569,1.972H2.955V.614a.614.614,0,0,0-1.228,0V1.972H1.114a.614.614,0,1,0,0,1.228H3.569a.614.614,0,1,0,0-1.228Z" transform="translate(-0.5)" fill="#533a98"/>
    </g>
  </g>
  <g id="Grupo_174" data-name="Grupo 174" transform="translate(13.228 5.254)">
    <g id="Grupo_173" data-name="Grupo 173">
      <path id="Caminho_77" data-name="Caminho 77" d="M432.114,171.168a.614.614,0,0,0-.614.614v9.233a.614.614,0,1,0,1.228,0v-9.233A.614.614,0,0,0,432.114,171.168Z" transform="translate(-431.5 -171.168)" fill="#533a98"/>
    </g>
  </g>
  <g id="Grupo_176" data-name="Grupo 176" transform="translate(12.001)">
    <g id="Grupo_175" data-name="Grupo 175">
      <path id="Caminho_78" data-name="Caminho 78" d="M394.569,2.8h-.614V.614a.614.614,0,0,0-1.228,0V2.8h-.614a.614.614,0,0,0,0,1.228h2.455a.614.614,0,1,0,0-1.228Z" transform="translate(-391.5)" fill="#533a98"/>
    </g>
  </g>
  <g id="Grupo_178" data-name="Grupo 178" transform="translate(9.238 9.764)">
    <g id="Grupo_177" data-name="Grupo 177">
      <path id="Caminho_79" data-name="Caminho 79" d="M302.114,318.122a.614.614,0,0,0-.614.614v4.723a.614.614,0,0,0,1.228,0v-4.723A.614.614,0,0,0,302.114,318.122Z" transform="translate(-301.5 -318.122)" fill="#533a98"/>
    </g>
  </g>
  <g id="Grupo_180" data-name="Grupo 180" transform="translate(8.011)">
    <g id="Grupo_179" data-name="Grupo 179">
      <path id="Caminho_80" data-name="Caminho 80" d="M264.569,7.312h-.614V.614a.614.614,0,1,0-1.228,0v6.7h-.614a.614.614,0,0,0,0,1.228h2.455a.614.614,0,1,0,0-1.228Z" transform="translate(-261.5)" fill="#533a98"/>
    </g>
  </g>
</svg>
