<svg xmlns="http://www.w3.org/2000/svg" width="21.141" height="21.141" viewBox="0 0 21.141 21.141">
  <g id="Icon_feather-instagram" data-name="Icon feather-instagram" transform="translate(0.75 0.75)">
    <path id="Caminho_127" data-name="Caminho 127" d="M7.91,3h9.82a4.91,4.91,0,0,1,4.91,4.91v9.82a4.91,4.91,0,0,1-4.91,4.91H7.91A4.91,4.91,0,0,1,3,17.731V7.91A4.91,4.91,0,0,1,7.91,3Z" transform="translate(-3 -3)" fill="none" stroke="#6d6e71" stroke-linecap="round" stroke-linejoin="round" stroke-width="1.5"/>
    <path id="Caminho_128" data-name="Caminho 128" d="M19.879,15.287a3.928,3.928,0,1,1-3.309-3.309,3.928,3.928,0,0,1,3.309,3.309Z" transform="translate(-6.13 -6.085)" fill="none" stroke="#6d6e71" stroke-linecap="round" stroke-linejoin="round" stroke-width="1.5"/>
    <path id="Caminho_129" data-name="Caminho 129" d="M26.25,9.75h0" transform="translate(-11.028 -5.331)" fill="none" stroke="#6d6e71" stroke-linecap="round" stroke-linejoin="round" stroke-width="1.5"/>
  </g>
</svg>
