<svg xmlns="http://www.w3.org/2000/svg" width="20.542" height="20.542" viewBox="0 0 20.542 20.542">
  <path id="Icon_awesome-whatsapp" data-name="Icon awesome-whatsapp" d="M17.466,5.235A10.183,10.183,0,0,0,1.444,17.519L0,22.792l5.4-1.417a10.148,10.148,0,0,0,4.865,1.238h0A10.277,10.277,0,0,0,20.542,12.434a10.22,10.22,0,0,0-3.077-7.2ZM10.267,20.9a8.446,8.446,0,0,1-4.31-1.178l-.307-.183-3.2.839L3.3,17.253l-.2-.321a8.477,8.477,0,1,1,15.723-4.5A8.555,8.555,0,0,1,10.267,20.9Zm4.64-6.337c-.252-.128-1.5-.743-1.738-.825s-.4-.128-.573.128-.656.825-.807,1-.3.193-.55.064A6.924,6.924,0,0,1,7.777,11.9c-.261-.449.261-.417.747-1.389a.471.471,0,0,0-.023-.445c-.064-.128-.573-1.38-.784-1.889s-.417-.426-.573-.436-.316-.009-.486-.009a.942.942,0,0,0-.679.316,2.858,2.858,0,0,0-.89,2.123,4.983,4.983,0,0,0,1.036,2.632,11.366,11.366,0,0,0,4.347,3.843,4.977,4.977,0,0,0,3.054.637,2.605,2.605,0,0,0,1.715-1.211,2.127,2.127,0,0,0,.147-1.211C15.329,14.75,15.159,14.685,14.907,14.562Z" transform="translate(0 -2.25)" fill="#fff"/>
</svg>
