<svg xmlns="http://www.w3.org/2000/svg" width="23.569" height="23.569" viewBox="0 0 23.569 23.569">
  <path id="Icon_simple-whatsapp" data-name="Icon simple-whatsapp" d="M17.184,14.124c-.3-.147-1.735-.851-2-.949s-.465-.147-.661.147-.757.947-.927,1.141-.343.206-.634.074a7.97,7.97,0,0,1-2.36-1.458,8.91,8.91,0,0,1-1.63-2.033c-.171-.295-.019-.457.128-.6s.3-.339.443-.514a2.489,2.489,0,0,0,.292-.487.54.54,0,0,0-.025-.515c-.074-.147-.66-1.591-.905-2.166s-.478-.5-.66-.5-.364-.015-.561-.015A1.107,1.107,0,0,0,6.9,6.6,3.279,3.279,0,0,0,5.871,9.028a5.746,5.746,0,0,0,1.2,3.02,13.1,13.1,0,0,0,5.008,4.4c.7.295,1.247.471,1.673.618a4.063,4.063,0,0,0,1.846.119,3.022,3.022,0,0,0,1.98-1.4,2.431,2.431,0,0,0,.177-1.4c-.073-.133-.265-.206-.56-.339m-5.348,7.309h-.016A9.824,9.824,0,0,1,6.864,20l-.354-.21-3.683.957.987-3.58L3.581,16.8A9.74,9.74,0,0,1,18.75,4.788a9.612,9.612,0,0,1,2.857,6.864A9.752,9.752,0,0,1,11.85,21.36m8.3-17.973A11.924,11.924,0,0,0,11.829,0,11.676,11.676,0,0,0,1.666,17.518L0,23.569l6.221-1.622a11.846,11.846,0,0,0,5.607,1.421h.006A11.726,11.726,0,0,0,23.569,11.685a11.582,11.582,0,0,0-3.432-8.26" fill="#6d6e71"/>
</svg>
